<svg width="20" height="22" viewBox="0 0 20 22" fill="none" xmlns="http://www.w3.org/2000/svg">
<path d="M8.58673 0.75H10.5459C11.0869 0.75 11.5255 1.23842 11.5255 1.84091V2.46141C11.5255 2.9281 11.8068 3.33355 12.1938 3.51249C12.581 3.69151 13.0318 3.62328 13.3283 3.29316L13.7223 2.85427C14.1049 2.42823 14.7251 2.42823 15.1077 2.85427L16.493 4.39704C16.8756 4.82307 16.8755 5.51379 16.493 5.93983L16.099 6.37865C15.8025 6.7088 15.7413 7.21088 15.902 7.64208C16.0627 8.07313 16.4268 8.38636 16.846 8.38636H17.4031C17.9441 8.38636 18.3827 8.87476 18.3827 9.47727V11.6591C18.3827 12.2616 17.9441 12.75 17.4031 12.75H16.8459C16.4268 12.75 16.0628 13.0632 15.902 13.4942C15.7413 13.9255 15.8025 14.4275 16.099 14.7576L16.493 15.1965C16.8756 15.6225 16.8756 16.3132 16.493 16.7392L15.1077 18.282C14.7251 18.7081 14.1049 18.7081 13.7223 18.282L13.3283 17.8432C13.0318 17.513 12.581 17.4448 12.1938 17.6239C11.8068 17.8029 11.5255 18.2083 11.5255 18.6749V19.2955C11.5255 19.898 11.0869 20.3864 10.5459 20.3864H8.58673C8.04571 20.3864 7.60714 19.898 7.60714 19.2955V18.6751C7.60714 18.2083 7.32587 17.8028 6.93881 17.6239C6.5516 17.4448 6.10076 17.513 5.8043 17.8432L5.41023 18.282C5.02767 18.7081 4.40743 18.7081 4.02488 18.282L2.63953 16.7392C2.25697 16.3132 2.25697 15.6225 2.63953 15.1965L3.03365 14.7576C3.33009 14.4275 3.39135 13.9255 3.2306 13.4942C3.06992 13.0632 2.70584 12.75 2.28677 12.75H1.72959C1.18858 12.75 0.75 12.2616 0.75 11.6591V9.47727C0.75 8.87476 1.18858 8.38636 1.72959 8.38636H2.28675C2.70583 8.38636 3.06992 8.07314 3.23061 7.6421C3.39137 7.21091 3.33011 6.70886 3.03365 6.37872L2.63954 5.93983C2.25698 5.51379 2.25698 4.82307 2.63954 4.39705L4.02489 2.85427C4.40745 2.42824 5.02769 2.42824 5.41025 2.85427L5.80436 3.29316C6.1008 3.6233 6.55163 3.69153 6.93883 3.5125C7.32588 3.33355 7.60714 2.92809 7.60714 2.46137V1.84091C7.60714 1.23842 8.04571 0.75 8.58673 0.75Z" stroke="#0F9AFF" stroke-width="1.5"/>
<path d="M11.5255 10.5682C11.5255 11.7732 10.6484 12.75 9.56636 12.75C8.4843 12.75 7.60718 11.7732 7.60718 10.5682C7.60718 9.36315 8.4843 8.38635 9.56636 8.38635C10.6484 8.38635 11.5255 9.36315 11.5255 10.5682Z" stroke="#0F9AFF" stroke-width="1.5"/>
</svg>
