<svg width="171" height="20" viewBox="0 0 171 20" fill="none" xmlns="http://www.w3.org/2000/svg">
<path d="M0.456105 19.4161C0.328105 19.0801 0.224105 18.6561 0.144105 18.1441C0.0641055 17.6321 0.0161055 17.1041 0.000105478 16.5601C0.000105478 16.0001 0.0161055 15.4641 0.0481055 14.9521C0.0961055 14.4401 0.176105 14.0161 0.288106 13.6801C0.544106 13.5841 0.816106 13.4241 1.10411 13.2001C1.39211 12.9761 1.66411 12.6081 1.92011 12.0961C2.19211 11.5841 2.40011 10.8641 2.54411 9.93606C2.67211 9.16806 2.70411 8.54406 2.64011 8.06406C2.57611 7.56806 2.45611 7.19206 2.28011 6.93606C2.12011 6.66406 1.94411 6.48006 1.75211 6.38406C1.57611 6.27206 1.42411 6.21606 1.29611 6.21606C1.15211 5.92806 1.04811 5.53606 0.984106 5.04006C0.920106 4.54406 0.888106 4.01606 0.888106 3.45606C0.904106 2.88006 0.952106 2.32806 1.03211 1.80006C1.11211 1.25606 1.23211 0.792056 1.39211 0.408056C2.00011 0.472056 2.73611 0.544056 3.60011 0.624056C4.48011 0.704056 5.47211 0.744056 6.57611 0.744056C7.47211 0.744056 8.41611 0.728056 9.40811 0.696056C10.4161 0.664056 11.3921 0.624056 12.3361 0.576056C13.2801 0.528056 14.1041 0.472056 14.8081 0.408056C14.7121 1.01606 14.6881 1.77606 14.7361 2.68806C14.8001 3.60006 15.0481 4.48006 15.4801 5.32806C15.4961 4.44806 15.5201 3.56806 15.5521 2.68806C15.6001 1.79206 15.6801 1.03206 15.7921 0.408056C16.4641 0.440055 17.0961 0.488055 17.6881 0.552055C18.2801 0.600056 18.8961 0.648056 19.5361 0.696056C20.1921 0.728056 20.9361 0.744056 21.7681 0.744056C22.3121 0.744056 22.9361 0.728056 23.6401 0.696056C24.3441 0.648056 25.0241 0.600056 25.6801 0.552055C26.3361 0.488055 26.8641 0.440055 27.2641 0.408056C27.4241 0.792056 27.5441 1.25606 27.6241 1.80006C27.7041 2.32806 27.7441 2.88006 27.7441 3.45606C27.7601 4.01606 27.7361 4.54406 27.6721 5.04006C27.6081 5.53606 27.5041 5.92806 27.3601 6.21606C27.2481 6.21606 27.0961 6.27206 26.9041 6.38406C26.7281 6.48006 26.5601 6.66406 26.4001 6.93606C26.2561 7.19206 26.1681 7.56006 26.1361 8.04006C26.1041 8.50406 26.1681 9.12006 26.3281 9.88806C26.5361 10.8161 26.7601 11.5441 27.0001 12.0721C27.2561 12.5841 27.5121 12.9601 27.7681 13.2001C28.0401 13.4241 28.3041 13.5841 28.5601 13.6801C28.6721 14.0161 28.7441 14.4401 28.7761 14.9521C28.8241 15.4641 28.8401 16.0001 28.8241 16.5601C28.8241 17.1041 28.7841 17.6321 28.7041 18.1441C28.6241 18.6561 28.5201 19.0801 28.3921 19.4161C27.7361 19.3521 26.9361 19.2721 25.9921 19.1761C25.0641 19.0801 23.8881 19.0321 22.4641 19.0321C21.1041 19.0321 19.8081 19.0801 18.5761 19.1761C17.3601 19.2721 16.4241 19.3521 15.7681 19.4161C15.7041 19.0801 15.6481 18.6561 15.6001 18.1441C15.5521 17.6321 15.5201 17.1041 15.5041 16.5601C15.4881 16.0001 15.4881 15.4641 15.5041 14.9521C15.5201 14.4401 15.5521 14.0161 15.6001 13.6801H16.4401L16.2001 10.9921L14.7841 15.0721L10.1281 13.0321L9.84011 13.6801L12.4561 14.8561C12.8241 15.0161 13.1761 15.1921 13.5121 15.3841C13.8481 15.5601 14.1361 15.8001 14.3761 16.1041C14.6161 16.4081 14.7761 16.8241 14.8561 17.3521C14.9521 17.8641 14.9361 18.5521 14.8081 19.4161C14.5041 19.3841 14.0801 19.3441 13.5361 19.2961C12.9921 19.2641 12.3841 19.2241 11.7121 19.1761C11.0561 19.1441 10.3761 19.1121 9.67211 19.0801C8.98411 19.0481 8.33611 19.0321 7.72811 19.0321C5.95211 19.0321 4.44811 19.0801 3.21611 19.1761C2.00011 19.2721 1.08011 19.3521 0.456105 19.4161ZM29.8267 19.4161C29.6827 19.0801 29.5707 18.6561 29.4907 18.1441C29.4107 17.6321 29.3627 17.1041 29.3467 16.5601C29.3307 16.0001 29.3467 15.4641 29.3947 14.9521C29.4587 14.4401 29.5467 14.0161 29.6587 13.6801C29.8987 13.5841 30.1387 13.4241 30.3787 13.2001C30.6347 12.9601 30.8427 12.5841 31.0027 12.0721C31.1627 11.5441 31.2427 10.8081 31.2427 9.86406C31.2427 8.84006 31.1467 8.07206 30.9547 7.56006C30.7627 7.03206 30.5387 6.68006 30.2827 6.50406C30.0427 6.31206 29.8347 6.21606 29.6587 6.21606C29.5147 5.92806 29.4027 5.53606 29.3227 5.04006C29.2427 4.54406 29.2027 4.01606 29.2027 3.45606C29.2187 2.88006 29.2667 2.32806 29.3467 1.80006C29.4427 1.25606 29.5787 0.792056 29.7547 0.408056C30.2347 0.440055 30.8507 0.488055 31.6027 0.552055C32.3547 0.616055 33.1467 0.672056 33.9787 0.720056C34.8267 0.752056 35.6107 0.768055 36.3307 0.768055C37.1307 0.768055 37.9547 0.752056 38.8027 0.720056C39.6507 0.672056 40.4507 0.616055 41.2027 0.552055C41.9547 0.488055 42.5707 0.440055 43.0507 0.408056C43.2107 0.792056 43.3307 1.25606 43.4107 1.80006C43.4907 2.32806 43.5307 2.88006 43.5307 3.45606C43.5307 4.03206 43.4987 4.56806 43.4347 5.06406C43.3707 5.56006 43.2667 5.95206 43.1227 6.24006C42.8827 6.24006 42.6427 6.33606 42.4027 6.52806C42.1627 6.70406 41.9627 7.04806 41.8027 7.56006C41.6427 8.07206 41.5627 8.84006 41.5627 9.86406C41.5627 10.8081 41.6427 11.5441 41.8027 12.0721C41.9787 12.5841 42.1867 12.9601 42.4267 13.2001C42.6667 13.4241 42.9067 13.5841 43.1467 13.6801C43.2747 14.0161 43.3627 14.4401 43.4107 14.9521C43.4587 15.4641 43.4747 16.0001 43.4587 16.5601C43.4427 17.1041 43.3947 17.6321 43.3147 18.1441C43.2347 18.6561 43.1227 19.0801 42.9787 19.4161C42.4987 19.3681 41.8827 19.3121 41.1307 19.2481C40.3787 19.2001 39.5787 19.1521 38.7307 19.1041C37.8827 19.0561 37.0587 19.0321 36.2587 19.0321C35.5227 19.0321 34.7467 19.0561 33.9307 19.1041C33.1307 19.1521 32.3627 19.2001 31.6267 19.2481C30.9067 19.3121 30.3067 19.3681 29.8267 19.4161ZM44.426 19.3681C44.266 18.9841 44.146 18.5281 44.066 18.0001C43.986 17.4561 43.938 16.9041 43.922 16.3441C43.922 15.7681 43.954 15.2321 44.018 14.7361C44.082 14.2401 44.186 13.8481 44.33 13.5601C45.082 13.5921 45.802 13.3681 46.49 12.8881C47.178 12.4081 47.874 11.6561 48.578 10.6321C47.954 9.44806 47.282 8.44006 46.562 7.60806C45.842 6.76006 45.098 6.29606 44.33 6.21606C44.186 5.92806 44.082 5.53606 44.018 5.04006C43.954 4.54406 43.922 4.01606 43.922 3.45606C43.938 2.88006 43.986 2.32806 44.066 1.80006C44.146 1.25606 44.266 0.792056 44.426 0.408056C45.082 0.472056 46.01 0.544056 47.21 0.624056C48.426 0.704056 49.778 0.744056 51.266 0.744056C51.922 0.744056 52.61 0.728056 53.33 0.696056C54.066 0.648056 54.77 0.600056 55.442 0.552055C56.114 0.488055 56.674 0.440055 57.122 0.408056C57.17 1.04806 57.258 1.74406 57.386 2.49606C57.53 3.24806 57.786 3.96006 58.154 4.63206C58.522 5.28806 59.074 5.83206 59.81 6.26406L60.194 5.64006C59.57 5.27206 59.098 4.81606 58.778 4.27206C58.474 3.72806 58.258 3.12806 58.13 2.47206C58.018 1.80006 57.93 1.10406 57.866 0.384056C58.33 0.448056 58.802 0.512056 59.282 0.576056C59.762 0.624056 60.346 0.664056 61.034 0.696056C61.738 0.728056 62.626 0.744056 63.698 0.744056C64.21 0.744056 64.802 0.728056 65.474 0.696056C66.146 0.648056 66.81 0.600056 67.466 0.552055C68.122 0.488055 68.666 0.440055 69.098 0.408056C69.258 0.792056 69.378 1.25606 69.458 1.80006C69.538 2.32806 69.578 2.88006 69.578 3.45606C69.594 4.01606 69.57 4.54406 69.506 5.04006C69.442 5.53606 69.338 5.92806 69.194 6.21606C68.858 6.24806 68.474 6.30406 68.042 6.38406C67.61 6.46406 67.13 6.68806 66.602 7.05606C66.09 7.42406 65.514 8.06406 64.874 8.97606C65.578 10.4321 66.258 11.5521 66.914 12.3361C67.57 13.1201 68.33 13.5281 69.194 13.5601C69.338 13.8481 69.442 14.2401 69.506 14.7361C69.57 15.2321 69.594 15.7681 69.578 16.3441C69.578 16.9041 69.538 17.4561 69.458 18.0001C69.378 18.5281 69.258 18.9841 69.098 19.3681C68.442 19.3041 67.506 19.2321 66.29 19.1521C65.09 19.0721 63.746 19.0321 62.258 19.0321C61.17 19.0321 60.09 19.0721 59.018 19.1521C57.962 19.2321 57.09 19.3041 56.402 19.3681C56.37 18.7921 56.282 18.1441 56.138 17.4241C55.994 16.7041 55.73 16.0081 55.346 15.3361C54.962 14.6641 54.378 14.1201 53.594 13.7041L53.234 14.3281C53.906 14.6961 54.402 15.1521 54.722 15.6961C55.058 16.2241 55.29 16.8081 55.418 17.4481C55.546 18.0721 55.634 18.7121 55.682 19.3681C55.234 19.3041 54.762 19.2481 54.266 19.2001C53.77 19.1521 53.17 19.1121 52.466 19.0801C51.778 19.0481 50.898 19.0321 49.826 19.0321C49.314 19.0321 48.722 19.0481 48.05 19.0801C47.378 19.1281 46.714 19.1761 46.058 19.2241C45.418 19.2721 44.874 19.3201 44.426 19.3681ZM89.7299 19.7761C87.4579 19.7761 85.7619 19.5041 84.6419 18.9601C83.5379 18.4001 82.9699 17.4161 82.9379 16.0081C82.7299 16.6001 82.6579 17.1521 82.7219 17.6641C82.8019 18.1761 82.9299 18.6801 83.1059 19.1761C81.3939 19.2241 79.9699 19.2721 78.8339 19.3201C77.6979 19.3841 76.6659 19.4081 75.7379 19.3921C75.4979 18.1121 75.3619 16.8481 75.3299 15.6001C75.3139 14.3361 75.4099 13.0001 75.6179 11.5921C76.4979 11.5921 77.3779 11.6801 78.2579 11.8561C79.1379 12.0321 79.9699 12.2801 80.7539 12.6001C81.5379 12.9041 82.2099 13.2801 82.7699 13.7281L83.2499 13.2241C82.7059 12.7921 82.1139 12.4321 81.4739 12.1441C80.8499 11.8401 80.2179 11.5841 79.5779 11.3761C78.7619 11.0881 78.0179 10.7201 77.3459 10.2721C76.6899 9.82406 76.1699 9.26406 75.7859 8.59206C75.4019 7.92006 75.2099 7.12006 75.2099 6.19206C75.2099 5.04006 75.4739 4.00006 76.0019 3.07206C76.5299 2.12806 77.3939 1.38406 78.5939 0.840056C79.8099 0.280056 81.4419 5.53131e-05 83.4899 5.53131e-05C85.5219 5.53131e-05 87.0739 0.288055 88.1459 0.864056C89.2179 1.42406 89.7699 2.46406 89.8019 3.98406C90.0259 3.37606 90.0979 2.80806 90.0179 2.28006C89.9379 1.75206 89.8099 1.19206 89.6339 0.600056C90.7859 0.584056 91.7459 0.568056 92.5139 0.552055C93.2819 0.520056 93.9619 0.488056 94.5539 0.456055C95.1459 0.424056 95.7459 0.408056 96.3539 0.408056C96.5939 1.56006 96.7219 2.80806 96.7379 4.15206C96.7699 5.48006 96.6819 6.84006 96.4739 8.23206C95.5619 8.21606 94.7459 8.13606 94.0259 7.99206C93.3219 7.83206 92.6659 7.60006 92.0579 7.29606C91.4499 6.99206 90.8259 6.61606 90.1859 6.16806L89.7539 6.72006C90.3619 7.16806 90.9859 7.55206 91.6259 7.87206C92.2659 8.17606 92.8659 8.45606 93.4259 8.71206C94.2579 9.08006 94.9619 9.48806 95.5379 9.93606C96.1139 10.3841 96.5539 10.9281 96.8579 11.5681C97.1779 12.2081 97.3379 13.0081 97.3379 13.9681C97.3379 15.2961 97.1059 16.3521 96.6419 17.1361C96.1939 17.9201 95.5939 18.5041 94.8419 18.8881C94.0899 19.2561 93.2659 19.4961 92.3699 19.6081C91.4899 19.7201 90.6099 19.7761 89.7299 19.7761ZM98.1202 19.4161C97.9922 19.0801 97.8882 18.6561 97.8082 18.1441C97.7282 17.6321 97.6802 17.1041 97.6642 16.5601C97.6642 16.0001 97.6802 15.4641 97.7122 14.9521C97.7602 14.4401 97.8402 14.0161 97.9522 13.6801C98.4642 13.5681 98.8562 13.3361 99.1282 12.9841C99.4162 12.6161 99.6242 12.1761 99.7522 11.6641C99.8802 11.1361 99.9842 10.5921 100.064 10.0321C100.16 9.44006 100.224 8.87206 100.256 8.32806C100.288 7.76806 100.224 7.29606 100.064 6.91206C99.9202 6.52806 99.6002 6.29606 99.1042 6.21606C98.9602 5.92806 98.8562 5.53606 98.7922 5.04006C98.7282 4.54406 98.6962 4.01606 98.6962 3.45606C98.7122 2.88006 98.7602 2.32806 98.8402 1.80006C98.9202 1.25606 99.0402 0.792056 99.2002 0.408056C99.8562 0.472056 100.664 0.536056 101.624 0.600056C102.584 0.648056 103.864 0.672055 105.464 0.672055C106.552 0.672055 107.728 0.632055 108.992 0.552055C110.272 0.456056 111.584 0.368056 112.928 0.288056C114.272 0.208056 115.584 0.168056 116.864 0.168056C117.952 0.168056 118.808 0.400056 119.432 0.864056C120.072 1.31206 120.552 1.90406 120.872 2.64006C121.192 3.37606 121.4 4.16806 121.496 5.01606C121.592 5.86406 121.632 6.69606 121.616 7.51206C121.616 8.31206 121.616 9.00806 121.616 9.60006C121.616 10.5441 121.704 11.2961 121.88 11.8561C122.056 12.4001 122.288 12.8081 122.576 13.0801C122.88 13.3521 123.2 13.5521 123.536 13.6801C123.648 14.0161 123.72 14.4401 123.752 14.9521C123.8 15.4641 123.816 16.0001 123.8 16.5601C123.8 17.1041 123.76 17.6321 123.68 18.1441C123.6 18.6561 123.496 19.0801 123.368 19.4161C122.712 19.3521 121.92 19.2721 120.992 19.1761C120.08 19.0801 118.976 19.0321 117.68 19.0321C116.352 19.0321 115.096 19.0801 113.912 19.1761C112.744 19.2721 111.832 19.3521 111.176 19.4161C111.112 19.0801 111.056 18.6561 111.008 18.1441C110.96 17.6321 110.928 17.1041 110.912 16.5601C110.896 16.0001 110.896 15.4641 110.912 14.9521C110.928 14.4401 110.96 14.0161 111.008 13.6801H111.68V12.4801H109.592V13.6801H110.264C110.328 14.0161 110.368 14.4401 110.384 14.9521C110.416 15.4641 110.424 16.0001 110.408 16.5601C110.392 17.1041 110.36 17.6321 110.312 18.1441C110.264 18.6561 110.192 19.0801 110.096 19.4161C109.664 19.3681 109.2 19.3121 108.704 19.2481C108.224 19.2001 107.656 19.1521 107 19.1041C106.36 19.0561 105.568 19.0321 104.624 19.0321C103.136 19.0321 101.856 19.0721 100.784 19.1521C99.7122 19.2481 98.8242 19.3361 98.1202 19.4161ZM109.76 8.95206H111.488V7.82406H109.76V8.95206ZM124.843 19.4161C124.699 19.0801 124.587 18.6561 124.507 18.1441C124.427 17.6321 124.379 17.1041 124.363 16.5601C124.347 16.0001 124.363 15.4641 124.411 14.9521C124.475 14.4401 124.563 14.0161 124.675 13.6801C124.915 13.5841 125.147 13.4241 125.371 13.2001C125.611 12.9601 125.811 12.5841 125.971 12.0721C126.131 11.5441 126.211 10.8081 126.211 9.86406C126.211 8.84006 126.115 8.07206 125.923 7.56006C125.747 7.03206 125.531 6.68006 125.275 6.50406C125.035 6.31206 124.819 6.21606 124.627 6.21606C124.483 5.92806 124.379 5.53606 124.315 5.04006C124.251 4.54406 124.219 4.01606 124.219 3.45606C124.235 2.88006 124.283 2.32806 124.363 1.80006C124.443 1.25606 124.563 0.792056 124.723 0.408056C124.995 0.424056 125.419 0.448056 125.995 0.480056C126.587 0.496056 127.275 0.520056 128.059 0.552055C128.843 0.568056 129.659 0.584056 130.507 0.600056C131.371 0.616056 132.219 0.632056 133.051 0.648056C133.883 0.648056 134.635 0.648056 135.307 0.648056C137.003 0.648056 138.747 0.624056 140.539 0.576056C142.347 0.528056 144.275 0.464056 146.323 0.384056C146.403 0.688056 146.475 1.18406 146.539 1.87206C146.603 2.56006 146.651 3.34406 146.683 4.22406C146.715 5.08806 146.731 5.96006 146.731 6.84006C146.731 7.72006 146.707 8.51206 146.659 9.21606C146.611 9.92006 146.539 10.4321 146.443 10.7521C145.323 10.9441 144.195 11.0401 143.059 11.0401C141.939 11.0401 140.619 10.9441 139.099 10.7521C138.955 9.53606 138.955 8.32006 139.099 7.10406H136.243V8.08806H138.571V12.0961H136.243C136.243 12.5121 136.395 12.8081 136.699 12.9841C137.003 13.1601 137.651 13.2321 138.643 13.2001C138.755 13.4881 138.835 13.9041 138.883 14.4481C138.947 14.9921 138.979 15.5841 138.979 16.2241C138.979 16.8641 138.947 17.4721 138.883 18.0481C138.835 18.6241 138.747 19.0801 138.619 19.4161C138.315 19.3681 137.811 19.3121 137.107 19.2481C136.419 19.2001 135.659 19.1521 134.827 19.1041C134.011 19.0561 133.243 19.0321 132.523 19.0321C131.931 19.0321 131.275 19.0401 130.555 19.0561C129.851 19.0881 129.139 19.1201 128.419 19.1521C127.699 19.2001 127.027 19.2481 126.403 19.2961C125.779 19.3441 125.259 19.3841 124.843 19.4161ZM147.693 19.4161C147.565 19.0801 147.461 18.6561 147.381 18.1441C147.301 17.6321 147.253 17.1041 147.237 16.5601C147.237 16.0001 147.253 15.4641 147.285 14.9521C147.333 14.4401 147.413 14.0161 147.525 13.6801C147.781 13.5841 148.029 13.4241 148.269 13.2001C148.509 12.9601 148.709 12.5841 148.869 12.0721C149.029 11.5441 149.109 10.8081 149.109 9.86406C149.109 8.84006 149.013 8.07206 148.821 7.56006C148.645 7.03206 148.429 6.68006 148.173 6.50406C147.933 6.31206 147.717 6.21606 147.525 6.21606C147.381 5.92806 147.277 5.53606 147.213 5.04006C147.149 4.54406 147.117 4.01606 147.117 3.45606C147.133 2.88006 147.181 2.32806 147.261 1.80006C147.341 1.25606 147.461 0.792056 147.621 0.408056C147.877 0.424056 148.293 0.448056 148.869 0.480056C149.461 0.496056 150.141 0.520056 150.909 0.552055C151.693 0.568056 152.509 0.584056 153.357 0.600056C154.205 0.616056 155.037 0.632056 155.853 0.648056C156.685 0.648056 157.429 0.648056 158.085 0.648056C159.765 0.648056 161.629 0.624056 163.677 0.576056C165.741 0.528056 167.789 0.464056 169.821 0.384056C169.901 0.688056 169.973 1.12806 170.037 1.70406C170.101 2.28006 170.149 2.92006 170.181 3.62406C170.213 4.32806 170.229 5.04006 170.229 5.76006C170.229 6.48006 170.205 7.14406 170.157 7.75206C170.109 8.34406 170.037 8.80806 169.941 9.14406C169.189 9.24006 168.357 9.30406 167.445 9.33606C166.533 9.36806 165.605 9.36806 164.661 9.33606C163.733 9.30406 162.853 9.24006 162.021 9.14406C161.829 8.39206 161.829 7.64806 162.021 6.91206H159.237V7.92006H161.469V11.2561H159.213V12.2881H162.021C161.829 11.5361 161.829 10.7841 162.021 10.0321C163.365 9.95206 164.741 9.91206 166.149 9.91206C167.557 9.91206 168.869 9.95206 170.085 10.0321C170.133 10.3201 170.173 10.7841 170.205 11.4241C170.237 12.0481 170.253 12.7601 170.253 13.5601C170.253 14.3441 170.237 15.1361 170.205 15.9361C170.189 16.7361 170.157 17.4481 170.109 18.0721C170.061 18.6961 169.997 19.1441 169.917 19.4161C168.237 19.3841 166.413 19.3121 164.445 19.2001C162.477 19.1041 160.549 19.0561 158.661 19.0561C157.637 19.0561 156.557 19.0641 155.421 19.0801C154.301 19.1121 153.213 19.1441 152.157 19.1761C151.117 19.2241 150.197 19.2641 149.397 19.2961C148.613 19.3441 148.045 19.3841 147.693 19.4161Z" fill="white"/>
</svg>
