<svg width="22" height="22" viewBox="0 0 22 22" fill="none" xmlns="http://www.w3.org/2000/svg">
<path d="M2.75 5.49998L5.5 1.83331H16.5L19.25 5.49998M2.75 5.49998V18.3333C2.75 18.8195 2.94315 19.2859 3.28697 19.6297C3.63079 19.9735 4.0971 20.1666 4.58333 20.1666H17.4167C17.9029 20.1666 18.3692 19.9735 18.713 19.6297C19.0568 19.2859 19.25 18.8195 19.25 18.3333V5.49998M2.75 5.49998H19.25M14.6667 9.16665C14.6667 10.1391 14.2804 11.0717 13.5927 11.7594C12.9051 12.447 11.9725 12.8333 11 12.8333C10.0275 12.8333 9.09491 12.447 8.40728 11.7594C7.71964 11.0717 7.33333 10.1391 7.33333 9.16665" stroke="#0F9AFF" stroke-width="1.5" stroke-linecap="round" stroke-linejoin="round"/>
</svg>
